<svg xmlns="http://www.w3.org/2000/svg" width="256" height="256" viewBox="0 0 100 100"><rect width="100" height="100" rx="0" fill="#7d6ee7"></rect><path fill="#fff" d="M8.72 78L8.72 22L32 22L32 30L17.52 30L17.52 45.60L28.88 45.60L28.88 53.60L17.52 53.60L17.52 78L8.72 78ZM34.48 78L34.48 70.16L50.80 30L35.28 30L35.28 22L60.24 22L60.24 29.84L43.92 70L60.24 70L60.24 78L34.48 78ZM65.20 78L65.20 22L78.16 22Q84.72 22 88 25.52Q91.28 29.04 91.28 35.84L91.28 35.84L91.28 41.36Q91.28 48.16 88 51.68Q84.72 55.20 78.16 55.20L78.16 55.20L74 55.20L74 78L65.20 78ZM74 47.20L78.16 47.20Q80.32 47.20 81.40 46Q82.48 44.80 82.48 41.92L82.48 41.92L82.48 35.28Q82.48 32.40 81.40 31.20Q80.32 30 78.16 30L78.16 30L74 30L74 47.20Z"></path></svg>